<?xml version="1.0" standalone="no"?>
<!DOCTYPE svg PUBLIC "-//W3C//DTD SVG 20010904//EN"
 "http://www.w3.org/TR/2001/REC-SVG-20010904/DTD/svg10.dtd">
<svg version="1.0" xmlns="http://www.w3.org/2000/svg"
 fill="[#b433ff]" viewBox="0 0 512.000000 512.000000"
 preserveAspectRatio="xMidYMid meet">

<g transform="translate(0.000000,512.000000) scale(0.100000,-0.100000)"
fill="#000000" stroke="none">
<path d="M1884 4030 c-45 -17 -92 -81 -138 -188 -26 -59 -69 -134 -94 -167
l-47 -60 -1 -90 c-1 -72 -7 -105 -29 -165 -43 -117 -83 -190 -136 -248 l-49
-54 0 -83 c0 -67 -6 -102 -31 -177 -36 -108 -89 -217 -130 -269 -25 -32 -29
-45 -29 -102 0 -104 -82 -323 -164 -437 -56 -78 -66 -102 -57 -142 9 -41 9
-43 -15 -185 -14 -84 -15 -112 -6 -159 34 -166 149 -306 319 -387 l68 -32 995
0 995 0 65 32 c71 35 149 106 185 168 13 22 103 301 200 620 437 1440 393
1282 376 1359 -7 30 -22 69 -34 87 -22 33 -101 99 -118 99 -5 0 -9 -21 -9 -46
0 -32 -91 -346 -290 -1002 -159 -527 -298 -972 -307 -990 -9 -19 -37 -45 -62
-60 l-46 -27 -910 -3 c-943 -3 -1041 0 -1114 37 -77 40 -123 138 -88 186 15
20 30 20 944 25 979 6 963 5 1034 53 74 49 106 138 414 1157 280 924 286 947
282 1016 -3 55 -10 83 -31 118 -31 54 -92 101 -147 116 -46 13 -1763 12 -1795
0z m1504 -492 c18 -18 15 -44 -14 -131 -21 -62 -31 -80 -54 -92 -25 -13 -118
-15 -625 -15 -392 0 -603 4 -616 10 -25 14 -24 30 7 122 43 129 -23 118 683
118 459 0 610 -3 619 -12z m-150 -521 c5 -39 -36 -156 -64 -184 l-23 -23 -614
0 c-537 0 -616 2 -627 15 -18 22 24 166 58 200 l25 25 621 -2 621 -3 3 -28z"/>
</g>
</svg>
