<?xml version="1.0" encoding="utf-8"?>
<!-- Generator: Adobe Illustrator 28.1.0, SVG Export Plug-In . SVG Version: 6.00 Build 0)  -->
<svg version="1.1" xmlns="http://www.w3.org/2000/svg" xmlns:xlink="http://www.w3.org/1999/xlink" x="0px" y="0px"
	 viewBox="0 0 576 576" style="enable-background:new 0 0 576 576;" xml:space="preserve">
<style type="text/css">
	.st0{display:none;}
	.st1{display:inline;}
	.st2{display:inline;opacity:0.21;}
	.st3{fill:none;stroke:#BCBEC0;stroke-miterlimit:10;}
	.st4{fill:none;}
	.st5{fill:#FFFFFF;}
	.st6{fill:none;stroke:#000000;stroke-miterlimit:10;}
	.st7{fill:none;stroke:#8F52A0;stroke-miterlimit:10;}
	.st8{fill:#8E53A1;stroke:#8F52A0;stroke-miterlimit:10;}
	.st9{fill:#8F52A0;stroke:#8E53A1;stroke-miterlimit:10;}
</style>
<g id="Layer_2" class="st0">
	<rect x="2.72" y="-6.03" class="st1" width="576.45" height="575.67"/>
	<g class="st2">
		<line class="st3" x1="70.26" y1="-41.36" x2="70.26" y2="617.21"/>
		<line class="st3" x1="94.44" y1="-41.36" x2="94.44" y2="617.21"/>
		<line class="st3" x1="118.62" y1="-41.36" x2="118.62" y2="617.21"/>
		<line class="st3" x1="142.8" y1="-41.36" x2="142.8" y2="617.21"/>
		<line class="st3" x1="166.98" y1="-41.36" x2="166.98" y2="617.21"/>
		<line class="st3" x1="191.16" y1="-41.36" x2="191.16" y2="617.21"/>
		<line class="st3" x1="215.34" y1="-41.36" x2="215.34" y2="617.21"/>
		<line class="st3" x1="239.52" y1="-41.36" x2="239.52" y2="617.21"/>
		<line class="st3" x1="263.7" y1="-41.36" x2="263.7" y2="617.21"/>
		<line class="st3" x1="287.88" y1="-41.36" x2="287.88" y2="617.21"/>
		<line class="st3" x1="312.06" y1="-41.36" x2="312.06" y2="617.21"/>
		<line class="st3" x1="336.24" y1="-41.36" x2="336.24" y2="617.21"/>
		<line class="st3" x1="360.42" y1="-41.36" x2="360.42" y2="617.21"/>
		<line class="st3" x1="384.6" y1="-41.36" x2="384.6" y2="617.21"/>
		<line class="st3" x1="408.78" y1="-41.36" x2="408.78" y2="617.21"/>
		<line class="st3" x1="432.96" y1="-41.36" x2="432.96" y2="617.21"/>
		<line class="st3" x1="457.14" y1="-41.36" x2="457.14" y2="617.21"/>
		<line class="st3" x1="481.32" y1="-41.36" x2="481.32" y2="617.21"/>
		<line class="st3" x1="505.5" y1="-41.36" x2="505.5" y2="617.21"/>
	</g>
	<g class="st2">
		<line class="st3" x1="-106.09" y1="311.75" x2="464.24" y2="641.03"/>
		<line class="st3" x1="-94" y1="290.81" x2="476.33" y2="620.09"/>
		<line class="st3" x1="-81.91" y1="269.87" x2="488.42" y2="599.15"/>
		<line class="st3" x1="-69.82" y1="248.93" x2="500.51" y2="578.21"/>
		<line class="st3" x1="-57.73" y1="227.99" x2="512.6" y2="557.27"/>
		<line class="st3" x1="-45.64" y1="207.05" x2="524.69" y2="536.33"/>
		<line class="st3" x1="-33.55" y1="186.11" x2="536.78" y2="515.39"/>
		<line class="st3" x1="-21.46" y1="165.17" x2="548.87" y2="494.45"/>
		<line class="st3" x1="-9.37" y1="144.22" x2="560.96" y2="473.51"/>
		<line class="st3" x1="2.72" y1="123.28" x2="573.05" y2="452.57"/>
		<line class="st3" x1="14.8" y1="102.34" x2="585.14" y2="431.62"/>
		<line class="st3" x1="26.89" y1="81.4" x2="597.23" y2="410.68"/>
		<line class="st3" x1="38.98" y1="60.46" x2="609.32" y2="389.74"/>
		<line class="st3" x1="51.07" y1="39.52" x2="621.41" y2="368.8"/>
		<line class="st3" x1="63.16" y1="18.58" x2="633.5" y2="347.86"/>
		<line class="st3" x1="75.25" y1="-2.36" x2="645.59" y2="326.92"/>
		<line class="st3" x1="87.34" y1="-23.3" x2="657.68" y2="305.98"/>
		<line class="st3" x1="99.43" y1="-44.24" x2="669.76" y2="285.04"/>
		<line class="st3" x1="111.52" y1="-65.18" x2="681.85" y2="264.1"/>
	</g>
	<g class="st2">
		<line class="st3" x1="681.85" y1="311.75" x2="111.52" y2="641.03"/>
		<line class="st3" x1="669.76" y1="290.81" x2="99.43" y2="620.09"/>
		<line class="st3" x1="657.68" y1="269.87" x2="87.34" y2="599.15"/>
		<line class="st3" x1="645.59" y1="248.93" x2="75.25" y2="578.21"/>
		<line class="st3" x1="633.5" y1="227.99" x2="63.16" y2="557.27"/>
		<line class="st3" x1="621.41" y1="207.05" x2="51.07" y2="536.33"/>
		<line class="st3" x1="609.32" y1="186.11" x2="38.98" y2="515.39"/>
		<line class="st3" x1="597.23" y1="165.17" x2="26.89" y2="494.45"/>
		<line class="st3" x1="585.14" y1="144.22" x2="14.8" y2="473.51"/>
		<line class="st3" x1="573.05" y1="123.28" x2="2.72" y2="452.57"/>
		<line class="st3" x1="560.96" y1="102.34" x2="-9.37" y2="431.62"/>
		<line class="st3" x1="548.87" y1="81.4" x2="-21.46" y2="410.68"/>
		<line class="st3" x1="536.78" y1="60.46" x2="-33.55" y2="389.74"/>
		<line class="st3" x1="524.69" y1="39.52" x2="-45.64" y2="368.8"/>
		<line class="st3" x1="512.6" y1="18.58" x2="-57.73" y2="347.86"/>
		<line class="st3" x1="500.51" y1="-2.36" x2="-69.82" y2="326.92"/>
		<line class="st3" x1="488.42" y1="-23.3" x2="-81.91" y2="305.98"/>
		<line class="st3" x1="476.33" y1="-44.24" x2="-94" y2="285.04"/>
		<line class="st3" x1="464.24" y1="-65.18" x2="-106.09" y2="264.1"/>
	</g>
</g>
<g id="Layer_1">
	<g>
		<g>
			<g>
				<path class="st4" d="M70.26,160.84c0,0,0,0,0-0.01c0-0.01,0-0.17,0-0.37v-27.2c0-0.2,0-0.52,0-0.72v-27.2c0-0.2,0-0.52,0-0.72
					V77.43c0-0.2,0-0.52,0-0.72V49.49c0-0.2,0-0.52,0-0.72v-27.2c0-0.2,0-0.52,0-0.72V-42.8"/>
			</g>
			<line class="st4" x1="70.26" y1="272.53" x2="70.26" y2="272.51"/>
			<line class="st4" x1="70.26" y1="384.21" x2="70.26" y2="384.19"/>
			<polyline class="st4" points="70.26,615.76 70.26,551.73 70.26,523.8 70.26,495.86 70.26,467.96 70.26,440.06 70.26,412.14 
				70.26,412.12 			"/>
			<polyline class="st4" points="94.46,-42.8 94.46,-20.65 94.46,7.27 94.46,35.19 94.46,63.11 94.46,91.03 94.46,118.96 
				94.46,146.88 94.46,174.8 			"/>
			<polygon points="215.37,399.72 215.37,401.22 215.34,401.16 215.34,399.65 			"/>
			<polyline class="st4" points="94.46,615.76 94.46,593.59 94.46,565.67 94.46,537.74 94.46,509.84 94.46,481.9 94.46,453.98 
				94.46,426.08 			"/>
			<polyline class="st4" points="118.63,-42.8 118.63,-34.59 118.63,-6.69 118.63,21.21 118.63,49.13 118.63,77.05 118.63,105 
				118.63,132.92 118.63,160.82 118.63,160.84 118.63,188.74 			"/>
			<polyline class="st4" points="118.63,440.04 118.63,467.94 118.63,495.88 118.63,523.8 118.63,551.73 118.63,579.63 
				118.63,607.55 118.63,615.76 			"/>
			<line class="st4" x1="142.82" y1="258.57" x2="142.82" y2="258.55"/>
			<polyline class="st4" points="142.82,241.5 142.82,230.64 142.82,230.62 142.82,202.72 142.82,202.7 142.82,174.8 142.82,174.78 
				142.82,146.88 142.82,118.96 142.82,91.03 142.82,63.11 142.82,35.19 142.82,7.27 142.82,-20.63 142.82,-42.8 			"/>
			<polyline class="st4" points="142.82,333.02 142.82,342.31 142.82,370.23 142.82,398.15 142.82,426.06 142.82,426.08 
				142.82,453.98 142.82,454 142.82,481.92 142.82,509.82 142.82,537.74 142.82,565.67 142.82,593.59 142.82,615.76 			"/>
			<polyline class="st4" points="166.99,-42.8 166.99,-34.61 166.99,-6.67 166.99,21.23 166.99,49.15 166.99,77.05 166.99,104.97 
				166.99,105 166.99,132.92 166.99,160.82 166.99,160.84 166.99,188.74 166.99,188.76 166.99,216.66 166.99,216.68 166.99,244.58 
				166.99,244.61 166.99,272.51 166.99,294.22 			"/>
			<polyline class="st4" points="166.99,328.35 166.99,328.37 166.99,356.27 166.99,356.29 			"/>
			<polyline class="st4" points="166.99,615.76 166.99,607.57 166.99,579.63 166.99,551.7 166.99,523.8 166.99,495.88 
				166.99,467.96 166.99,440.04 166.99,440.02 166.99,412.12 166.99,387.3 			"/>
			<polyline class="st4" points="191.18,-42.8 191.18,-20.63 191.18,7.29 191.18,35.19 191.18,63.11 191.18,91.03 191.18,118.96 
				191.18,146.86 191.18,146.88 191.18,174.78 191.18,174.8 191.18,202.7 191.18,202.72 191.18,230.62 191.18,230.64 191.18,258.55 
				191.18,258.57 191.18,286.47 191.18,286.49 191.18,314.39 191.18,342.31 191.18,347 			"/>
			<line class="st4" x1="191.18" y1="398.15" x2="191.18" y2="398.13"/>
			<line class="st4" x1="191.18" y1="426.08" x2="191.18" y2="426.06"/>
			<polyline class="st4" points="191.18,441.6 191.18,453.98 191.18,454 191.18,481.9 191.18,481.92 191.18,509.82 191.18,537.74 
				191.18,565.67 191.18,593.59 191.18,615.76 			"/>
			<polyline class="st4" points="215.35,-42.8 215.35,-6.69 215.35,21.25 215.35,49.15 215.35,77.07 215.35,104.97 215.35,105 
				215.35,132.9 215.35,132.92 215.35,160.84 215.35,188.76 215.35,216.68 215.35,244.58 			"/>
			<polyline class="st4" points="215.35,495.88 215.35,523.78 215.35,551.7 215.35,579.65 215.35,615.76 			"/>
			<polyline class="st4" points="239.53,615.76 239.53,565.69 239.53,537.76 239.53,509.84 			"/>
			<polyline class="st4" points="239.53,258.55 239.53,230.64 239.53,230.62 239.53,202.72 239.53,202.7 239.53,174.8 
				239.53,146.88 239.53,146.86 239.53,118.96 239.53,118.94 239.53,91.03 239.53,91.01 239.53,63.11 239.53,63.09 239.53,35.19 
				239.53,7.27 239.53,-42.8 			"/>
			<polyline class="st4" points="263.72,615.76 263.72,551.73 263.72,523.8 			"/>
			<polyline class="st4" points="263.72,272.51 263.72,244.61 263.72,244.58 263.72,216.68 263.72,216.66 263.72,188.76 
				263.72,188.74 263.72,160.84 263.72,132.92 263.72,132.9 263.72,105 263.72,104.97 263.72,77.07 263.72,49.17 263.72,49.15 
				263.72,21.23 263.72,-42.8 			"/>
			<polyline class="st4" points="287.89,615.76 287.89,537.76 287.89,509.84 287.89,481.92 287.89,454 287.89,426.08 287.89,398.15 
				287.89,370.23 287.89,342.31 287.89,314.41 287.89,314.39 287.89,286.49 287.89,286.47 287.89,258.57 287.89,258.55 
				287.89,230.62 287.89,202.72 287.89,174.8 287.89,174.78 287.89,146.88 287.89,146.86 287.89,118.96 287.89,118.94 287.89,91.03 
				287.89,63.11 287.89,35.19 287.89,-42.8 			"/>
			<polyline class="st4" points="312.08,615.76 312.08,551.73 312.08,523.8 			"/>
			<polyline class="st4" points="312.08,272.51 312.08,244.61 312.08,244.58 312.08,216.68 312.08,216.66 312.08,188.76 
				312.08,188.74 312.08,160.84 312.08,160.82 312.08,132.92 312.08,105 312.08,104.97 312.08,77.09 312.08,77.05 312.08,49.15 
				312.08,21.23 312.08,-42.8 			"/>
			<polyline class="st4" points="336.25,615.76 336.25,565.67 336.25,537.76 336.25,509.84 			"/>
			<polyline class="st4" points="336.25,258.57 336.25,230.64 336.25,202.72 336.25,202.7 336.25,174.8 336.25,174.78 
				336.25,146.88 336.25,146.86 336.25,118.96 336.25,91.03 336.25,63.11 336.25,63.09 336.25,35.19 336.25,7.29 336.25,-42.8 			
				"/>
			<polyline class="st4" points="360.42,615.76 360.42,579.63 360.42,551.7 360.42,523.78 360.42,495.88 			"/>
			<polyline class="st4" points="360.42,244.61 360.42,244.58 360.42,216.68 360.42,216.66 360.42,188.76 360.42,188.74 
				360.42,160.84 360.42,160.82 360.42,132.92 360.42,132.9 360.42,105 360.42,77.07 360.42,49.15 360.42,21.25 360.42,-6.67 
				360.42,-42.8 			"/>
			<polyline class="st4" points="384.61,414.66 384.61,426.08 384.61,427.53 			"/>
			<polyline class="st4" points="384.61,427.87 384.61,428.27 384.61,454 384.61,455.44 384.61,455.46 384.61,481.9 384.61,481.92 
				384.61,483.36 384.61,483.38 384.61,509.84 384.61,511.3 384.61,537.76 384.61,539.22 384.61,565.68 384.61,567.14 
				384.61,593.59 384.61,595.04 384.61,615.76 			"/>
			<polyline class="st4" points="384.62,314.39 384.62,286.49 384.62,286.47 			"/>
			<polyline class="st4" points="384.62,279.26 384.62,258.57 384.62,230.64 384.62,202.7 384.62,174.8 384.62,174.78 
				384.62,146.88 384.62,146.86 384.62,118.96 384.62,91.03 384.62,63.09 384.62,35.17 384.62,7.27 384.62,-20.63 384.62,-42.8 			
				"/>
			<polyline class="st4" points="384.62,336.23 384.62,342.31 384.62,370.23 384.62,370.25 384.62,383.28 			"/>
			<polyline class="st4" points="408.79,615.76 408.79,607.55 408.79,579.63 408.79,551.7 408.79,523.8 408.79,495.86 
				408.79,467.96 408.79,467.94 408.79,440.04 408.79,440.02 408.79,412.12 408.79,400.09 			"/>
			<polyline class="st4" points="408.79,-42.8 408.79,-34.59 408.79,-6.67 408.79,21.23 408.79,49.15 408.79,77.07 408.79,105 
				408.79,132.92 408.79,160.82 408.79,160.84 408.79,188.74 408.79,188.76 408.79,216.66 408.79,216.68 408.79,244.58 
				408.79,244.61 408.79,272.51 408.79,300.43 408.79,312.37 			"/>
			<line class="st4" x1="408.79" y1="356.27" x2="408.79" y2="328.35"/>
			<polyline class="st4" points="432.98,-42.8 432.98,-20.65 432.98,7.25 432.98,35.17 432.98,63.11 432.98,91.03 432.98,118.94 
				432.98,118.96 432.98,146.86 432.98,146.88 432.98,174.78 432.98,174.8 432.98,202.72 432.98,230.62 432.98,258.55 
				432.98,258.57 432.98,286.47 432.98,286.49 432.98,314.39 432.98,314.41 432.98,342.31 432.98,342.33 432.98,345.48 			"/>
			<polyline class="st4" points="432.98,370.23 432.98,398.15 432.98,398.18 			"/>
			<polyline class="st4" points="432.98,404.47 432.98,426.08 432.98,454 432.98,481.92 432.98,509.82 432.98,537.76 432.98,565.69 
				432.98,593.61 432.98,615.76 			"/>
			<polyline class="st4" points="457.15,615.76 457.15,607.55 457.15,579.63 457.15,551.73 457.15,523.78 457.15,495.86 
				457.15,467.94 457.15,440.04 			"/>
			<polyline class="st4" points="457.15,188.76 457.15,188.74 457.15,160.84 457.15,132.92 457.15,105 457.15,77.07 457.15,49.15 
				457.15,21.23 457.15,-6.69 457.15,-34.59 457.15,-42.8 			"/>
			<polyline class="st4" points="481.32,615.76 481.32,593.59 481.32,565.67 481.32,537.74 481.32,509.82 481.32,481.9 
				481.32,453.98 481.32,426.08 			"/>
			<polyline class="st4" points="481.32,174.8 481.32,146.88 481.32,118.96 481.32,91.03 481.32,63.11 481.32,35.19 481.32,7.27 
				481.32,-20.65 481.32,-42.8 			"/>
			<polyline class="st4" points="505.51,615.76 505.51,551.7 505.51,523.78 505.51,495.86 505.51,467.96 505.51,440.06 
				505.51,412.12 			"/>
			<polyline class="st4" points="505.51,160.84 505.51,132.9 505.51,104.97 505.51,77.07 505.51,49.15 505.51,21.23 505.51,-42.8 
							"/>
		</g>
		<g>
			<polyline class="st4" points="464.24,641.02 408.78,609 408.77,608.99 384.61,595.04 384.6,595.03 360.43,581.09 360.42,581.08 
				360.41,581.07 336.26,567.13 336.25,567.12 336.24,567.11 312.08,553.18 312.07,553.17 287.89,539.22 287.88,539.21 
				263.71,525.26 263.7,525.25 			"/>
			<polyline class="st4" points="-106.09,311.75 -50.64,343.76 -26.45,357.72 -2.28,371.68 21.89,385.64 46.08,399.6 70.25,413.56 
							"/>
			<polyline class="st4" points="118.62,441.49 142.79,455.45 142.81,455.45 166.98,469.41 191.15,483.37 191.17,483.37 
				215.34,497.33 			"/>
			<polyline class="st4" points="476.33,620.08 457.16,609.02 457.15,609.01 457.14,608.99 432.99,595.08 432.98,595.07 
				432.97,595.05 408.78,581.08 408.77,581.07 384.61,567.14 384.6,567.13 360.43,553.17 360.42,553.16 360.41,553.15 
				336.26,539.23 336.25,539.22 336.24,539.21 312.08,525.26 312.07,525.25 287.89,511.3 287.88,511.29 263.7,497.33 			"/>
			<polyline class="st4" points="-94.01,290.81 -74.84,301.88 -50.64,315.86 -26.45,329.82 -2.28,343.76 21.89,357.72 46.08,371.68 
				70.25,385.64 			"/>
			<polyline class="st4" points="198.61,459.74 191.17,455.45 191.15,455.45 166.98,441.49 142.81,427.52 142.79,427.52 
				118.62,413.56 			"/>
			<polyline class="st4" points="263.71,469.41 287.88,483.37 312.05,497.33 312.07,497.33 			"/>
			<polyline class="st4" points="336.24,511.29 336.25,511.3 336.26,511.31 360.41,525.23 360.42,525.24 360.43,525.25 
				384.6,539.21 384.61,539.22 408.77,553.15 408.78,553.16 432.97,567.13 432.98,567.14 432.99,567.15 457.14,581.07 
				457.15,581.08 457.16,581.09 481.31,595.03 481.32,595.04 488.41,599.14 			"/>
			<polyline class="st4" points="-81.92,269.87 -74.84,273.98 -50.64,287.92 -26.45,301.9 -2.28,315.86 21.89,329.82 46.08,343.76 
				70.25,357.72 			"/>
			<line class="st4" x1="191.17" y1="427.52" x2="191.15" y2="427.52"/>
			<polyline class="st4" points="181.86,422.17 166.98,413.56 142.81,399.6 118.62,385.64 			"/>
			<polyline class="st4" points="263.71,441.49 287.88,455.45 312.07,469.41 			"/>
			<polyline class="st4" points="500.5,578.2 481.31,567.11 457.14,553.17 432.97,539.21 408.78,525.25 384.6,511.29 360.43,497.33 
				360.41,497.33 			"/>
			<polyline class="st4" points="-69.81,248.93 -50.64,259.99 -26.45,273.95 -2.28,287.92 21.91,301.88 46.08,315.84 70.25,329.8 
							"/>
			<line class="st4" x1="191.17" y1="399.6" x2="191.15" y2="399.6"/>
			<polyline class="st4" points="118.62,357.72 118.64,357.72 142.81,371.68 165.13,384.58 			"/>
			<polyline class="st4" points="263.71,413.56 287.88,427.52 287.9,427.52 312.07,441.49 			"/>
			<polyline class="st4" points="512.61,557.26 505.5,553.15 481.31,539.19 457.14,525.23 432.97,511.27 408.78,497.31 
				384.6,483.37 384.6,483.35 360.43,469.41 360.41,469.41 			"/>
			<polyline class="st4" points="-57.73,227.99 -50.64,232.09 -26.45,246.03 -2.28,259.99 21.91,273.95 46.08,287.92 70.25,301.88 
							"/>
			<line class="st4" x1="215.34" y1="385.64" x2="205.65" y2="380.06"/>
			<line class="st4" x1="167" y1="357.72" x2="166.98" y2="357.72"/>
			<polyline class="st4" points="148.37,346.97 142.81,343.76 118.62,329.8 			"/>
			<polyline class="st4" points="263.71,385.64 287.88,399.6 312.07,413.56 			"/>
			<polyline class="st4" points="524.69,536.32 505.51,525.24 505.5,525.23 481.32,511.28 481.31,511.27 457.16,497.33 
				457.15,497.32 457.14,497.31 432.99,483.39 432.98,483.38 432.97,483.37 408.8,469.41 408.79,469.41 408.78,469.41 
				408.78,469.39 384.61,455.46 384.6,455.45 360.89,441.76 360.5,441.53 			"/>
			<line class="st4" x1="360.49" y1="441.53" x2="360.43" y2="441.49"/>
			<polyline class="st4" points="-45.64,207.05 -26.45,218.13 -2.28,232.09 21.89,246.03 46.08,259.99 70.25,273.95 			"/>
			<line class="st4" x1="189.2" y1="342.61" x2="188.26" y2="342.07"/>
			<polyline class="st4" points="189.2,342.62 191.17,343.76 191.18,343.77 215.34,357.72 			"/>
			<line class="st4" x1="131.64" y1="309.4" x2="118.62" y2="301.88"/>
			<polyline class="st4" points="263.71,357.72 287.88,371.68 312.07,385.64 			"/>
			<line class="st4" x1="360.43" y1="413.56" x2="360.41" y2="413.56"/>
			<polyline class="st4" points="536.78,515.37 505.51,497.32 505.5,497.31 481.32,483.36 481.31,483.35 457.15,469.4 
				457.14,469.39 432.98,455.46 432.97,455.45 408.78,441.49 408.77,441.48 408.77,441.46 385.26,427.9 384.92,427.7 			"/>
			<polyline class="st4" points="374.93,421.94 384.6,427.52 384.61,427.53 			"/>
			<polyline class="st4" points="-33.56,186.1 -2.28,204.17 21.91,218.13 46.08,232.07 70.25,246.03 			"/>
			<line class="st4" x1="171.77" y1="304.64" x2="170.84" y2="304.11"/>
			<polyline class="st4" points="171.77,304.65 191.17,315.84 191.18,315.85 215.34,329.8 			"/>
			<polyline class="st4" points="263.71,329.8 287.88,343.76 312.05,357.72 312.07,357.72 			"/>
			<polyline class="st4" points="360.41,385.64 360.43,385.64 371.56,392.06 			"/>
			<polyline class="st4" points="548.86,494.43 505.5,469.41 481.31,455.43 457.16,441.51 457.14,441.49 432.99,427.55 
				432.97,427.52 409.34,413.88 			"/>
			<line class="st4" x1="408.78" y1="413.56" x2="398.59" y2="407.67"/>
			<polyline class="st4" points="-21.47,165.16 21.91,190.21 46.08,204.17 70.25,218.11 			"/>
			<line class="st4" x1="142.81" y1="260.01" x2="142.81" y2="259.99"/>
			<polyline class="st4" points="215.34,301.87 191.18,287.94 191.17,287.93 191.17,287.91 191.15,287.91 166.99,273.96 
				166.98,273.95 154.38,266.69 			"/>
			<line class="st4" x1="154.38" y1="266.68" x2="153.43" y2="266.14"/>
			<polyline class="st4" points="263.71,301.9 287.88,315.84 287.88,315.86 312.05,329.8 312.07,329.8 			"/>
			<polyline class="st4" points="432.95,399.6 432.97,399.6 432.97,399.62 			"/>
			<line class="st4" x1="425.4" y1="395.25" x2="422.24" y2="393.41"/>
			<polyline class="st4" points="396.04,378.31 384.6,371.7 384.6,371.68 360.41,357.72 			"/>
			<polyline class="st4" points="560.95,473.51 505.51,441.52 505.5,441.51 481.53,427.65 			"/>
			<polyline class="st4" points="-9.37,144.22 46.08,176.25 70.25,190.19 			"/>
			<line class="st4" x1="136.98" y1="228.69" x2="136.04" y2="228.15"/>
			<polyline class="st4" points="136.98,228.7 142.81,232.07 142.81,232.09 142.82,232.1 166.98,246.03 166.98,246.05 
				166.99,246.06 191.15,259.99 191.17,259.99 191.17,260.01 191.18,260.02 215.34,273.95 			"/>
			<polyline class="st4" points="263.71,273.95 287.88,287.92 287.88,287.94 287.9,287.94 312.07,301.88 			"/>
			<polyline class="st4" points="360.41,329.8 384.6,343.76 391.92,347.97 			"/>
			<line class="st4" x1="573.06" y1="452.57" x2="505.5" y2="413.56"/>
			<g>
				<path class="st4" d="M2.72,123.28l67.22,38.81c0.17,0.1,0.31,0.18,0.31,0.19c0,0.01,0,0.01,0,0.01"/>
			</g>
			<polyline class="st4" points="215.34,246.03 191.18,232.1 191.17,232.09 191.17,232.07 166.99,218.14 166.98,218.13 
				166.98,218.11 142.82,204.18 142.81,204.17 142.81,204.15 118.61,190.19 			"/>
			<polyline class="st4" points="505.67,385.74 529.67,399.6 585.14,431.63 			"/>
			<line class="st4" x1="430.79" y1="342.5" x2="428.96" y2="341.44"/>
			<polyline class="st4" points="430.8,342.51 432.97,343.76 432.97,343.78 432.98,343.79 457.14,357.72 			"/>
			<line class="st4" x1="408.78" y1="329.8" x2="384.6" y2="315.84"/>
			<polyline class="st4" points="312.07,273.95 287.88,260.01 287.88,259.99 263.71,246.05 263.71,246.03 239.51,232.09 
				239.51,232.07 215.34,218.13 191.17,204.17 166.98,190.21 166.98,190.19 142.81,176.25 142.81,176.23 142.79,176.23 
				118.64,162.29 118.62,162.29 118.62,162.27 94.45,148.33 70.25,134.34 14.81,102.34 			"/>
			<line class="st4" x1="360.43" y1="273.98" x2="360.41" y2="273.98"/>
			<line class="st4" x1="395.53" y1="294.24" x2="393.71" y2="293.19"/>
			<polyline class="st4" points="395.54,294.25 408.77,301.87 408.78,301.88 432.94,315.84 432.97,315.84 432.97,315.86 
				432.98,315.87 457.14,329.8 			"/>
			<polyline class="st4" points="384.6,287.94 384.6,287.92 384.58,287.92 			"/>
			<polyline class="st4" points="597.23,410.69 553.86,385.64 529.67,371.68 505.67,357.82 			"/>
			<polyline class="st4" points="336.24,260.01 312.07,246.05 287.88,232.07 263.71,218.13 263.71,218.11 239.54,204.17 
				239.51,204.17 239.51,204.15 215.34,190.21 191.17,176.25 191.15,176.25 166.98,162.29 166.98,162.27 142.81,148.33 
				118.62,134.37 94.45,120.4 70.25,106.42 26.89,81.4 			"/>
			<polyline class="st4" points="609.31,389.75 578.04,371.68 553.87,357.72 553.84,357.72 529.67,343.76 505.5,329.82 			"/>
			<polyline class="st4" points="38.98,60.46 70.25,78.52 94.45,92.48 118.62,106.44 142.81,120.4 166.98,134.37 191.15,148.33 
				191.17,148.33 215.34,162.29 239.51,176.25 263.71,190.21 287.88,204.17 312.05,218.13 312.07,218.13 336.24,232.09 
				360.41,246.03 360.41,246.05 360.43,246.05 384.6,260.01 408.78,273.95 432.95,287.92 432.97,287.92 432.97,287.94 
				457.14,301.88 			"/>
			<polyline class="st4" points="505.67,302 529.67,315.86 529.69,315.86 553.84,329.8 553.86,329.8 578.03,343.76 602.21,357.72 
				621.4,368.8 			"/>
			<polyline class="st4" points="51.08,39.51 70.25,50.58 94.45,64.56 118.62,78.5 142.81,92.48 166.98,106.42 166.98,106.44 
				167,106.44 191.17,120.4 215.34,134.34 215.34,134.37 239.51,148.31 239.51,148.33 263.71,162.29 287.88,176.23 287.88,176.25 
				312.07,190.19 312.07,190.21 336.24,204.15 336.24,204.17 360.41,218.11 360.41,218.13 384.6,232.09 408.78,246.03 
				408.78,246.05 408.8,246.05 432.95,259.99 432.97,259.99 432.97,260.01 457.14,273.95 			"/>
			<polyline class="st4" points="505.67,274.05 529.67,287.91 529.69,287.91 553.86,301.87 578.03,315.84 602.23,329.8 
				626.4,343.76 633.5,347.86 			"/>
			<polyline class="st4" points="63.17,18.57 70.25,22.66 94.45,36.64 118.62,50.58 142.81,64.56 166.98,78.5 191.17,92.48 
				215.34,106.42 215.34,106.44 239.51,120.38 239.51,120.4 263.71,134.34 263.71,134.37 287.88,148.31 287.88,148.33 287.9,148.33 
				312.07,162.27 312.07,162.29 336.24,176.23 336.24,176.25 360.41,190.19 360.43,190.19 384.6,204.15 408.78,218.11 
				408.78,218.13 408.8,218.13 432.97,232.07 457.14,246.03 			"/>
			<polyline class="st4" points="505.67,246.13 529.67,259.99 553.86,273.95 578.03,287.91 602.23,301.87 626.4,315.84 
				645.59,326.92 			"/>
			<polyline class="st4" points="75.25,-2.37 94.45,8.72 118.62,22.66 142.81,36.64 166.98,50.6 191.17,64.56 215.34,78.52 
				239.51,92.46 239.51,92.48 239.54,92.48 263.71,106.42 263.71,106.44 287.88,120.38 287.88,120.4 312.07,134.37 336.24,148.31 
				336.24,148.33 360.41,162.27 360.41,162.29 360.43,162.29 384.6,176.23 384.6,176.25 408.78,190.19 408.78,190.21 432.97,204.17 
				457.14,218.11 			"/>
			<polyline class="st4" points="657.68,305.98 650.59,301.88 650.57,301.88 626.4,287.92 602.23,273.98 578.06,260.01 
				578.04,260.01 553.87,246.03 553.84,246.03 529.67,232.07 505.5,218.13 			"/>
			<polyline class="st4" points="87.34,-23.31 94.45,-19.2 118.62,-5.24 142.81,8.72 166.98,22.68 191.17,36.64 215.34,50.6 
				239.51,64.54 239.51,64.56 239.54,64.56 263.71,78.52 287.88,92.48 312.07,106.44 336.24,120.4 360.41,134.34 360.41,134.37 
				360.43,134.37 384.6,148.31 384.6,148.33 408.78,162.27 408.78,162.29 432.97,176.23 432.97,176.25 457.14,190.19 457.14,190.21 
							"/>
			<polyline class="st4" points="505.67,190.31 529.67,204.17 553.84,218.13 553.86,218.13 578.03,232.09 602.23,246.05 
				626.4,260.01 650.59,273.97 669.76,285.04 			"/>
			<polyline class="st4" points="481.31,176.25 457.14,162.29 432.97,148.33 432.95,148.33 408.78,134.37 384.6,120.4 384.58,120.4 
				360.41,106.44 336.24,92.48 336.22,92.48 312.07,78.54 312.05,78.52 287.88,64.56 263.71,50.62 263.71,50.6 263.69,50.6 
				239.51,36.64 215.34,22.7 191.17,8.74 166.98,-5.22 142.81,-19.18 118.62,-33.15 99.43,-44.23 			"/>
			<polyline class="st4" points="681.85,264.1 626.4,232.09 602.23,218.13 602.21,218.13 578.03,204.17 553.87,190.21 
				553.86,190.21 529.67,176.25 505.5,162.29 481.32,148.33 481.31,148.33 481.31,148.32 457.15,134.37 457.14,134.37 
				457.14,134.36 442.71,126.03 439.81,124.36 436.92,122.68 432.98,120.41 432.97,120.4 432.95,120.4 432.94,120.4 408.79,106.46 
				408.78,106.45 408.77,106.44 384.62,92.5 384.61,92.49 384.6,92.48 360.42,78.53 360.41,78.52 336.25,64.57 336.24,64.56 
				336.22,64.56 334.77,63.72 329.15,60.47 312.08,50.61 312.07,50.6 303.26,45.52 290.53,38.18 288.39,36.94 287.89,36.65 
				287.88,36.64 287.72,36.55 287.56,36.46 284.8,34.86 263.72,22.7 263.71,22.69 263.7,22.68 239.53,8.74 239.52,8.73 239.51,8.72 
				215.35,-5.24 215.34,-5.25 191.18,-19.18 191.17,-19.19 166.99,-33.16 166.98,-33.17 111.53,-65.17 			"/>
		</g>
		<g>
			<polyline class="st4" points="111.53,641.02 166.98,609.02 166.99,609.01 191.17,595.03 191.18,595.02 215.34,581.09 
				215.35,581.08 239.51,567.13 239.52,567.12 263.7,553.17 263.71,553.16 287.88,539.21 287.89,539.2 312.07,525.25 			"/>
			<polyline class="st4" points="457.14,441.49 432.97,455.45 408.8,469.41 408.78,469.41 384.6,483.37 360.43,497.33 
				360.41,497.33 			"/>
			<polyline class="st4" points="505.5,413.56 529.67,399.6 553.87,385.64 578.04,371.68 602.21,357.72 626.4,343.76 681.85,311.75 
							"/>
			<polygon points="215.37,399.72 215.37,401.22 215.34,401.16 215.34,399.65 			"/>
			<polyline class="st4" points="99.42,620.08 118.61,608.99 118.62,608.98 142.81,595.03 142.82,595.02 166.98,581.07 
				166.99,581.06 191.17,567.11 191.18,567.1 215.34,553.15 215.35,553.14 239.51,539.21 239.52,539.2 263.7,525.25 			"/>
			<polyline class="st4" points="505.67,385.54 529.67,371.68 553.84,357.72 553.86,357.72 578.03,343.76 602.23,329.8 
				626.4,315.84 650.57,301.87 650.59,301.87 669.76,290.81 			"/>
			<polyline class="st4" points="360.41,469.41 360.43,469.41 384.6,455.45 408.78,441.49 432.97,427.52 443.82,421.25 			"/>
			<polyline class="st4" points="312.07,497.33 312.05,497.33 287.88,511.29 263.71,525.23 			"/>
			<polyline class="st4" points="87.34,599.14 94.44,595.03 94.45,595.02 118.61,581.07 118.62,581.06 142.81,567.11 142.82,567.1 
				166.98,553.15 166.99,553.14 191.17,539.19 191.18,539.18 215.34,525.23 215.35,525.22 239.51,511.29 			"/>
			<polyline class="st4" points="505.67,357.62 529.67,343.76 553.84,329.8 553.86,329.8 578.03,315.84 602.23,301.87 626.4,287.91 
				650.59,273.97 657.67,269.87 			"/>
			<line class="st4" x1="429.78" y1="401.44" x2="408.78" y2="413.56"/>
			<line class="st4" x1="432.97" y1="399.6" x2="432.95" y2="399.6"/>
			<polyline class="st4" points="312.07,469.41 287.88,483.37 263.71,497.33 			"/>
			<polyline class="st4" points="215.34,497.33 191.17,511.27 166.98,525.25 142.81,539.19 118.62,553.17 94.45,567.11 75.25,578.2 
							"/>
			<polyline class="st4" points="645.59,248.93 626.4,260.01 602.23,273.98 578.04,287.92 553.87,301.88 529.69,315.86 
				529.67,315.86 505.5,329.8 			"/>
			<line class="st4" x1="457.14" y1="357.72" x2="445.68" y2="364.35"/>
			<line class="st4" x1="408.78" y1="385.64" x2="384.6" y2="399.6"/>
			<line class="st4" x1="360.43" y1="413.56" x2="360.41" y2="413.56"/>
			<polyline class="st4" points="312.07,441.49 287.88,455.45 263.71,469.41 			"/>
			<polyline class="st4" points="63.17,557.26 70.25,553.17 94.45,539.19 118.62,525.25 142.81,511.27 166.98,497.33 191.15,483.37 
				191.17,483.37 191.17,483.35 205.45,475.12 			"/>
			<polyline class="st4" points="505.67,301.8 529.67,287.91 529.69,287.91 553.86,273.95 578.03,260.01 578.06,260.01 
				602.23,246.05 626.4,232.09 633.5,227.99 			"/>
			<polyline class="st4" points="360.41,385.64 360.43,385.64 384.6,371.68 401.71,361.8 			"/>
			<line class="st4" x1="432.09" y1="344.27" x2="431.34" y2="344.7"/>
			<polyline class="st4" points="432.09,344.26 432.97,343.76 432.98,343.75 457.14,329.8 			"/>
			<polyline class="st4" points="312.07,413.56 287.9,427.52 287.88,427.52 263.71,441.49 			"/>
			<polyline class="st4" points="195.55,452.9 191.17,455.43 191.17,455.45 191.15,455.45 166.98,469.41 142.81,483.37 
				118.62,497.33 94.45,511.29 70.25,525.25 51.08,536.32 			"/>
			<polyline class="st4" points="505.67,273.85 529.67,259.99 553.84,246.03 553.86,246.03 578.03,232.09 602.21,218.13 
				602.23,218.13 621.4,207.04 			"/>
			<polyline class="st4" points="457.14,301.9 432.98,315.83 432.97,315.84 432.94,315.84 417.73,324.61 			"/>
			<line class="st4" x1="417.73" y1="324.62" x2="416.98" y2="325.05"/>
			<polyline class="st4" points="387.67,341.99 384.6,343.76 360.41,357.72 			"/>
			<polyline class="st4" points="312.07,385.64 287.88,399.6 263.71,413.56 			"/>
			<polyline class="st4" points="38.98,515.37 70.25,497.31 94.45,483.35 118.62,469.39 142.79,455.45 142.81,455.45 142.81,455.43 
				166.98,441.49 166.98,441.47 185.67,430.69 			"/>
			<polyline class="st4" points="191.15,427.52 191.17,427.52 191.17,427.5 			"/>
			<polyline class="st4" points="505.67,245.93 529.67,232.07 553.84,218.13 553.86,218.13 578.03,204.17 609.31,186.1 			"/>
			<polyline class="st4" points="402.65,305.42 408.78,301.88 432.95,287.92 432.97,287.92 457.14,273.95 			"/>
			<line class="st4" x1="373.62" y1="322.17" x2="360.41" y2="329.8"/>
			<polyline class="st4" points="312.07,357.72 312.05,357.72 287.88,371.68 263.71,385.64 			"/>
			<polyline class="st4" points="26.89,494.43 70.25,469.41 94.45,455.43 118.62,441.49 142.79,427.52 142.81,427.52 142.81,427.5 
				166.98,413.56 175.77,408.48 			"/>
			<polyline class="st4" points="191.15,399.6 191.17,399.6 191.17,399.58 209.72,388.89 215.34,385.64 			"/>
			<polyline class="st4" points="597.23,165.16 553.87,190.21 529.67,204.17 505.5,218.11 			"/>
			<line class="st4" x1="384.6" y1="287.92" x2="384.58" y2="287.92"/>
			<polyline class="st4" points="388.29,285.77 408.78,273.95 432.95,259.99 432.97,259.99 457.14,246.03 			"/>
			<polyline class="st4" points="312.07,329.8 312.05,329.8 287.88,343.76 263.71,357.72 			"/>
			<line class="st4" x1="215.34" y1="357.72" x2="199.59" y2="366.83"/>
			<polyline class="st4" points="118.62,413.56 142.81,399.6 165.9,386.29 165.9,386.29 			"/>
			<polyline class="st4" points="94.45,427.52 70.25,441.51 14.81,473.51 			"/>
			<polygon points="360.41,441.57 360.41,442.04 360.09,442.22 359.02,442.36 			"/>
			<polyline class="st4" points="505.67,190.11 529.67,176.25 585.14,144.22 			"/>
			<polyline class="st4" points="457.14,218.13 432.97,232.07 408.8,246.05 408.78,246.05 384.6,260.01 373.98,266.16 			"/>
			<line class="st4" x1="360.43" y1="273.98" x2="360.41" y2="273.98"/>
			<polyline class="st4" points="312.07,301.9 287.88,315.84 287.88,315.86 263.71,329.8 			"/>
			<polyline class="st4" points="118.62,385.64 142.81,371.68 156,364.08 			"/>
			<polyline class="st4" points="166.98,357.74 166.98,357.72 167,357.72 			"/>
			<polyline class="st4" points="189.48,344.74 191.17,343.76 215.34,329.82 			"/>
			<polyline class="st4" points="70.25,413.56 70.25,413.58 2.72,452.57 			"/>
			<path class="st5" d="M349.02,285.08l24.79,36.38l10.17,15.46l0.62,0.79l7.49,10.51l-4.78-7.03l3.9,5.69l9.79,13.4l7.36,10.59
				l0.25,0.35l-12.57,7.09l-11.44,6.41l-13.04,7.34l-11.15,6.27l0.06-152l-24.23,13.68l-16.88,9.74c-4.51,2.6-7.29,7.41-7.29,12.62
				v229.22c0,6.07,6.57,9.86,11.83,6.83l12.34-7.13l0.02-0.02l24.15-13.94l0.3-55.92l-0.21,0.12h-0.01l-0.08,0.04l-1.39,0.79v-1.09
				l1.7-1.53l-0.01,1.67l23.89-13.53l0.01-0.01v-0.34l0.31,0.17l23.38-13.22l0.47-0.27l0.01-0.01l0.01-0.01l0.55-0.32l21.08-11.91
				l1.82,2.52l0.74,1.12l0.01,0.02l9.94,15.26l0.43,0.64l13.78,19.96l0.01-0.01l22.6-12.73l10.92-6.42l7.95-4.59
				c4.36-2.52,7.05-7.18,7.05-12.22v-19.77l-0.17-0.1l0.17-0.1v-27.72l-0.17-0.1l0.17-0.1V302l-0.17-0.1l0.17-0.1v-27.75l-0.17-0.1
				l0.17-0.1v-27.72l-0.17-0.1l0.17-0.1v-55.62l-0.17-0.1l0.17-0.1v-16.2c0-5.12-5.55-8.33-9.99-5.77l-14.37,8.3v-0.19l-24.17,13.96
				v188.35l-10.71-14.65l-0.75-1l-12.69-17.42v-0.02l-0.01-0.01l-0.89-1.19v-0.01l-0.75-1l-0.54-0.75l-0.01-0.01l-1.83-2.51
				l-11.23-15.37v-0.01l-0.75-1.02l-8.21-11.21l-5.37-7.4l-0.75-1.02l-7.11-9.71l-0.01-0.01l-1.82-2.51l-4.65-6.4l-0.75-1.02
				l-3.71-5.04v-0.02l-9.87-13.53l-0.73-1l-13.53-18.39 M486.6,424.66c-0.18,0.1-2.65,1.59-5.07,2.99l-0.21-0.12l9.01-5.02
				L486.6,424.66z"/>
			<polygon class="st5" points="360.72,439.74 360.71,441.41 360.5,441.53 360.49,441.53 360.41,441.57 359.02,442.36 
				359.02,441.27 			"/>
			<path class="st5" d="M490.33,422.51l-3.73,2.15c-0.18,0.1-2.65,1.59-5.07,2.99l-0.21-0.12L490.33,422.51z"/>
			<polygon points="505.67,190.11 505.67,190.31 505.5,190.21 			"/>
			<polygon points="505.67,245.93 505.67,246.13 505.5,246.03 			"/>
			<polygon points="505.67,273.85 505.67,274.05 505.5,273.95 			"/>
			<polygon points="505.67,301.8 505.67,302 505.5,301.9 			"/>
			<polygon points="505.67,357.62 505.67,357.82 505.5,357.72 			"/>
			<polygon points="505.67,385.54 505.67,385.74 505.5,385.64 			"/>
			<line class="st4" x1="573.06" y1="123.28" x2="505.5" y2="162.29"/>
			<polyline class="st4" points="360.41,246.05 360.43,246.05 384.6,232.09 408.78,218.13 408.8,218.13 432.97,204.17 
				457.14,190.21 			"/>
			<polyline class="st4" points="312.07,273.98 287.9,287.94 287.88,287.94 263.71,301.9 			"/>
			<polyline class="st4" points="118.62,357.72 118.64,357.72 142.81,343.76 146.1,341.86 			"/>
			<line class="st4" x1="166.98" y1="329.82" x2="166.98" y2="329.8"/>
			<polyline class="st4" points="179.36,322.65 191.17,315.84 215.34,301.88 			"/>
			<polyline class="st4" points="70.25,385.66 46.08,399.6 -9.37,431.63 			"/>
			<polyline class="st4" points="263.71,273.95 287.88,260.01 287.88,259.99 312.07,246.05 312.07,246.03 336.24,232.09 
				360.41,218.13 360.41,218.11 384.6,204.15 408.78,190.21 408.78,190.19 432.97,176.25 432.97,176.23 457.14,162.29 
				481.31,148.33 505.5,134.34 560.95,102.34 			"/>
			<line class="st4" x1="136.2" y1="319.65" x2="118.62" y2="329.8"/>
			<polyline class="st4" points="169.23,300.58 191.15,287.92 191.17,287.92 215.34,273.98 			"/>
			<polyline class="st4" points="70.25,357.72 46.08,371.68 21.89,385.64 -21.47,410.69 			"/>
			<polyline class="st4" points="239.51,259.99 263.71,246.05 263.71,246.03 287.88,232.07 312.05,218.13 312.07,218.11 
				336.24,204.17 336.24,204.15 360.41,190.21 360.41,190.19 360.43,190.19 384.6,176.25 384.6,176.23 408.78,162.29 408.78,162.27 
				432.95,148.33 432.97,148.33 432.97,148.31 457.14,134.37 481.31,120.4 505.5,106.42 548.86,81.4 			"/>
			<polyline class="st4" points="536.78,60.46 505.5,78.52 481.31,92.48 457.14,106.44 432.97,120.38 432.97,120.4 432.95,120.4 
				408.78,134.37 384.6,148.31 384.6,148.33 360.43,162.29 360.41,162.29 336.24,176.23 336.24,176.25 312.07,190.19 312.07,190.21 
				287.88,204.17 263.71,218.11 263.71,218.13 239.51,232.07 239.51,232.09 215.34,246.03 191.17,259.99 191.15,259.99 
				166.98,273.95 159.1,278.5 			"/>
			<line class="st4" x1="126.31" y1="297.44" x2="118.62" y2="301.88"/>
			<polyline class="st4" points="70.25,329.82 46.08,343.76 21.89,357.72 -2.28,371.68 -33.56,389.75 			"/>
			<line class="st4" x1="142.81" y1="260.01" x2="142.81" y2="259.99"/>
			<polyline class="st4" points="148.98,256.43 166.98,246.05 166.98,246.03 191.17,232.09 191.17,232.07 215.34,218.13 
				239.51,204.17 239.54,204.17 263.71,190.21 263.71,190.19 287.88,176.25 287.88,176.23 312.07,162.29 312.07,162.27 
				336.24,148.33 336.24,148.31 360.41,134.37 360.43,134.37 384.58,120.4 384.6,120.4 408.78,106.44 432.97,92.48 457.14,78.52 
				481.31,64.56 505.5,50.6 524.69,39.51 			"/>
			<polyline class="st4" points="70.25,301.9 46.08,315.84 21.89,329.82 -2.28,343.76 -26.45,357.72 -45.64,368.81 			"/>
			<polyline class="st4" points="512.61,18.57 505.5,22.68 481.31,36.64 457.14,50.6 432.97,64.56 408.78,78.52 384.6,92.48 
				360.41,106.44 336.24,120.4 312.07,134.37 287.9,148.33 287.88,148.33 263.71,162.29 239.51,176.25 215.34,190.21 191.17,204.15 
				191.17,204.17 166.98,218.11 166.98,218.13 142.81,232.07 142.81,232.09 138.87,234.36 			"/>
			<polyline class="st4" points="70.25,273.98 46.08,287.92 21.91,301.88 -2.28,315.86 -26.45,329.82 -50.64,343.76 -57.73,347.86 
							"/>
			<polyline class="st4" points="500.5,-2.37 481.31,8.72 457.14,22.68 432.97,36.62 408.78,50.6 384.6,64.54 360.41,78.52 
				336.24,92.48 336.22,92.48 312.07,106.42 312.07,106.44 287.88,120.38 287.88,120.4 263.71,134.34 263.71,134.37 239.51,148.31 
				239.51,148.33 215.34,162.29 191.17,176.23 191.17,176.25 191.15,176.25 166.98,190.19 166.98,190.21 142.81,204.15 
				142.81,204.17 128.74,212.28 			"/>
			<polyline class="st4" points="70.25,246.05 46.08,259.99 21.91,273.95 -2.28,287.92 -26.45,301.9 -50.64,315.86 -69.81,326.92 
							"/>
			<polyline class="st4" points="488.41,-23.31 481.32,-19.22 481.31,-19.21 457.15,-5.26 457.14,-5.25 432.98,8.68 432.97,8.69 
				408.78,22.67 408.77,22.68 384.61,36.61 384.6,36.62 360.42,50.59 360.41,50.6 336.25,64.53 336.24,64.54 336.24,64.56 
				336.22,64.56 312.08,78.49 312.07,78.5 312.05,78.52 287.89,92.47 287.88,92.48 263.71,106.41 263.7,106.42 263.7,106.44 
				239.52,120.37 239.51,120.38 239.51,120.4 215.35,134.33 215.34,134.34 215.34,134.36 191.18,148.29 191.17,148.3 191.17,148.32 
				191.15,148.32 166.99,162.26 166.98,162.27 166.98,162.29 142.82,176.22 142.81,176.23 142.79,176.23 118.61,190.19 			"/>
			<polyline class="st4" points="70.25,218.13 46.08,232.07 21.89,246.03 -2.28,259.99 -26.45,273.95 -50.64,287.92 -74.84,301.88 
				-81.92,305.98 			"/>
			<path class="st5" d="M256.55,269.83l-17.04-9.84l-24.17-13.96v153.62l0.03,0.07v1.5l-0.03-0.06v-1.51l-5.07-11.08l-0.52-1.13
				l-3.15-6.83l-0.92-2l-5.54-12.1v-0.01l-0.52-1.12L191.2,347l-0.02-0.04l-1.15-2.54l-0.52-1.13l-0.31-0.67v-0.01l-0.92-1.99
				l-8.37-18.29l-0.52-1.13l-7.62-16.55v-0.01l-0.91-1.98l-1.09-2.39l-0.51-1.14l-2.25-4.91l-0.02-0.04l-7.34-16l-0.52-1.13
				l-4.75-10.36v-0.01l-0.92-1.99l-3.93-8.58l-0.52-1.13l-6.17-13.48l-0.02-0.04l-3.4-7.42l-0.52-1.13l-1.92-4.21v-0.01l-0.91-1.99
				l-7.15-14.53l-0.56-1.14l-9.75-20.84l-24.17-13.94h-0.02l-12.22-7.06c-5.31-3.07-11.95,0.76-11.95,6.9v232.87
				c0,2.85,1.52,5.48,3.98,6.9l20.19,11.66h0.02l0.02,0.02l23.37,13.49c0.35,0.2,0.78-0.05,0.78-0.45V274.96l7.72,21.03l5.34,11.96
				l4.56,10.25l6.61,14.82l3.29,7.39l2.27,5.11l7.63,17.11l9.12,20.5l0.78,1.71l1.08,2.46l8.79,19.73l6.09,13.69l3.81,8.52
				l5.5,12.36l4.38,9.85l3.06,6.84l6.83,15.38l9.87,23.66l0.01,0.01l24.16,13.95l0.02,0.02l12.4,7.14
				c5.23,3.02,11.77-0.75,11.77-6.8V282.21C263.7,277.1,260.98,272.38,256.55,269.83z M94.44,287.93l-0.02-0.02h0.02V287.93z
				 M239.51,315.86v-0.02h0.02L239.51,315.86z"/>
			<polyline class="st4" points="476.33,-44.23 457.15,-33.16 457.14,-33.15 432.98,-19.22 432.97,-19.21 408.78,-5.23 
				408.77,-5.22 384.61,8.71 384.6,8.72 360.42,22.69 360.41,22.7 336.25,36.63 336.24,36.64 312.08,50.59 312.07,50.6 
				287.89,64.55 287.88,64.56 263.71,78.51 263.7,78.52 239.53,92.48 239.52,92.48 239.51,92.48 215.35,106.43 215.34,106.44 
				191.18,120.39 191.17,120.4 166.99,134.35 166.98,134.36 142.82,148.31 142.81,148.32 118.64,162.29 118.62,162.29 
				118.61,162.29 94.44,176.25 			"/>
			<polyline class="st4" points="70.25,190.21 46.08,204.17 21.91,218.13 -2.28,232.09 -26.45,246.03 -50.64,259.99 -74.84,273.98 
				-94.01,285.04 			"/>
			<g>
				<path class="st4" d="M464.24-65.17l-55.16,31.85c-0.17,0.1-0.45,0.26-0.62,0.36l-23.55,13.6c-0.17,0.1-0.45,0.26-0.62,0.36
					L360.72-5.4c-0.17,0.1-0.45,0.26-0.62,0.36l-23.55,13.6c-0.17,0.1-0.45,0.26-0.62,0.36L312.38,22.5
					c-0.17,0.1-0.45,0.26-0.62,0.36l-23.57,13.6c-0.17,0.1-0.45,0.26-0.62,0.36l-23.55,13.6c-0.17,0.1-0.32,0.18-0.32,0.18
					s-0.15,0.08-0.32,0.18l-23.53,13.6c-0.17,0.1-0.32,0.18-0.32,0.18c-0.01,0-0.15,0.08-0.32,0.18l-23.55,13.6
					c-0.17,0.1-0.45,0.26-0.62,0.36l-23.55,13.6c-0.17,0.1-0.45,0.26-0.62,0.36l-23.55,13.6c-0.17,0.1-0.32,0.18-0.32,0.18
					c-0.01,0-0.15,0.08-0.32,0.18l-23.55,13.6c-0.17,0.1-0.45,0.26-0.62,0.36l-23.57,13.6c-0.17,0.1-0.45,0.26-0.62,0.36
					l-23.55,13.6c-0.17,0.1-0.45,0.26-0.62,0.36l-23.86,13.78"/>
			</g>
			<g>
				<path class="st4" d="M70.25,162.29l-23.86,13.78c-0.17,0.1-0.45,0.26-0.62,0.36l-23.55,13.6c-0.17,0.1-0.45,0.26-0.62,0.36
					l-23.57,13.6c-0.17,0.1-0.45,0.26-0.62,0.36l-23.55,13.6c-0.17,0.1-0.45,0.26-0.62,0.36l-23.57,13.6
					c-0.17,0.1-0.45,0.26-0.62,0.36l-55.14,31.83"/>
			</g>
		</g>
	</g>
	<line class="st4" x1="227.43" y1="427.52" x2="215.37" y2="401.22"/>
	<line class="st4" x1="118.62" y1="280.14" x2="106.53" y2="253.01"/>
	<path class="st6" d="M348.33,286.48"/>
	<path class="st6" d="M360.41,303.52"/>
	<polyline class="st4" points="384.61,427.87 384.91,427.71 384.92,427.7 	"/>
	<line class="st4" x1="359" y1="442.36" x2="355.37" y2="444.42"/>
	<g>
		<line class="st7" x1="310.05" y1="49.54" x2="310.05" y2="49.52"/>
		<line class="st7" x1="433.5" y1="117.77" x2="433.5" y2="117.75"/>
		<line class="st7" x1="165.78" y1="110.61" x2="165.76" y2="110.61"/>
		<polyline class="st7" points="433.5,117.75 433.5,117.77 433.48,117.78 		"/>
		<polyline class="st7" points="310.07,49.52 310.05,49.52 310.05,49.54 		"/>
		<g>
			<g>
				
					<ellipse transform="matrix(0.9996 -0.0267 0.0267 0.9996 -2.4998 7.7063)" class="st8" cx="287.46" cy="97.51" rx="3.33" ry="3.39"/>
			</g>
		</g>
		<g>
			<g>
				
					<ellipse transform="matrix(0.9996 -0.0267 0.0267 0.9996 -2.9115 5.8945)" class="st8" cx="219.38" cy="112.02" rx="3.33" ry="3.39"/>
			</g>
		</g>
		<g>
			<g>
				
					<ellipse transform="matrix(0.9996 -0.0267 0.0267 0.9996 -0.8614 7.6959)" class="st8" cx="287.89" cy="36.12" rx="3.33" ry="3.39"/>
			</g>
		</g>
		<g>
			<g>
				
					<ellipse transform="matrix(0.9996 -0.0267 0.0267 0.9996 -1.7065 6.8972)" class="st9" cx="257.54" cy="67.38" rx="3.33" ry="3.39"/>
			</g>
		</g>
		<g>
			<g>
				
					<ellipse transform="matrix(0.9996 -0.0267 0.0267 0.9996 -1.5583 8.8709)" class="st8" cx="331.56" cy="62.82" rx="3.33" ry="3.39"/>
			</g>
		</g>
		<g>
			<g>
				
					<ellipse transform="matrix(0.9996 -0.0267 0.0267 0.9996 -2.3424 9.8724)" class="st8" cx="368.69" cy="92.69" rx="3.33" ry="3.39"/>
			</g>
		</g>
		<g>
			<g>
				
					<ellipse transform="matrix(0.9996 -0.0267 0.0267 0.9996 -2.9234 6.9135)" class="st8" cx="257.54" cy="112.98" rx="3.33" ry="3.39"/>
			</g>
		</g>
		<g>
			<g>
				
					<ellipse transform="matrix(0.9996 -0.0267 0.0267 0.9996 -2.0577 5.9096)" class="st8" cx="220.37" cy="80.04" rx="3.33" ry="3.39"/>
			</g>
		</g>
		<g>
			<g>
				
					<ellipse transform="matrix(0.9996 -0.0267 0.0267 0.9996 -2.9089 4.854)" class="st8" cx="180.39" cy="111.41" rx="3.33" ry="3.39"/>
			</g>
		</g>
		<g>
			<g>
				
					<ellipse transform="matrix(0.9996 -0.0267 0.0267 0.9996 -3.6546 5.6146)" class="st8" cx="208.52" cy="139.72" rx="3.33" ry="3.39"/>
			</g>
		</g>
		<g>
			<g>
				
					<ellipse transform="matrix(0.9996 -0.0267 0.0267 0.9996 -2.6591 8.826)" class="st8" cx="329.33" cy="104.03" rx="3.33" ry="3.39"/>
			</g>
		</g>
		<g>
			<g>
				
					<ellipse transform="matrix(0.9996 -0.0267 0.0267 0.9996 -3.1622 11.7819)" class="st8" cx="439.81" cy="124.36" rx="3.33" ry="3.39"/>
			</g>
		</g>
		<g>
			<g>
				
					<ellipse transform="matrix(0.9996 -0.0267 0.0267 0.9996 -3.9448 12.5774)" class="st8" cx="469.22" cy="154.08" rx="3.33" ry="3.39"/>
			</g>
		</g>
		<g>
			<g>
				
					<ellipse transform="matrix(0.9996 -0.0267 0.0267 0.9996 -3.1531 10.308)" class="st8" cx="384.6" cy="123.28" rx="3.33" ry="3.39"/>
			</g>
		</g>
		<g>
			<g>
				
					<ellipse transform="matrix(0.9996 -0.0267 0.0267 0.9996 -3.921 6.4528)" class="st8" cx="239.78" cy="150.12" rx="3.33" ry="3.39"/>
			</g>
		</g>
		<g>
			<g>
				
					<ellipse transform="matrix(0.9996 -0.0267 0.0267 0.9996 -4.2464 5.0493)" class="st8" cx="187.04" cy="161.61" rx="3.33" ry="3.39"/>
			</g>
		</g>
		<g>
			<g>
				
					<ellipse transform="matrix(0.9996 -0.0267 0.0267 0.9996 -4.1129 2.6309)" class="st8" cx="96.51" cy="155.4" rx="3.33" ry="3.39"/>
			</g>
		</g>
		<g>
			<g>
				
					<ellipse transform="matrix(0.9996 -0.0267 0.0267 0.9996 -4.2336 4.1314)" class="st8" cx="152.66" cy="160.67" rx="3.33" ry="3.39"/>
			</g>
		</g>
		<g>
			<g>
				
					<ellipse transform="matrix(0.9996 -0.0267 0.0267 0.9996 -3.9005 7.9286)" class="st8" cx="295.09" cy="150.09" rx="3.33" ry="3.39"/>
			</g>
		</g>
		<g>
			<g>
				
					<ellipse transform="matrix(0.9996 -0.0267 0.0267 0.9996 -3.5288 8.6107)" class="st8" cx="320.82" cy="136.51" rx="3.33" ry="3.39"/>
			</g>
		</g>
		<g>
			<g>
				
					<ellipse transform="matrix(0.9996 -0.0267 0.0267 0.9996 -4.0832 10.4874)" class="st8" cx="390.86" cy="158.22" rx="3.33" ry="3.39"/>
			</g>
		</g>
		<g>
			<g>
				
					<ellipse transform="matrix(0.9996 -0.0267 0.0267 0.9996 -4.9467 9.7758)" class="st8" cx="363.77" cy="190.21" rx="3.33" ry="3.39"/>
			</g>
		</g>
		<g>
			<g>
				
					<ellipse transform="matrix(0.9996 -0.0267 0.0267 0.9996 -4.9936 7.7396)" class="st8" cx="287.46" cy="190.95" rx="3.33" ry="3.39"/>
			</g>
		</g>
		<g>
			<g>
				
					<ellipse transform="matrix(0.9996 -0.0267 0.0267 0.9996 -4.5448 6.1529)" class="st8" cx="228.24" cy="173.34" rx="3.33" ry="3.39"/>
			</g>
		</g>
		<g>
			<g>
				
					<ellipse transform="matrix(0.9996 -0.0267 0.0267 0.9996 -5.162 5.0596)" class="st8" cx="186.97" cy="195.92" rx="3.33" ry="3.39"/>
			</g>
		</g>
		<g>
			<g>
				
					<ellipse transform="matrix(0.9996 -0.0267 0.0267 0.9996 -5.1705 8.8175)" class="st8" cx="327.75" cy="198.11" rx="3.33" ry="3.39"/>
			</g>
		</g>
		<g>
			<g>
				
					<ellipse transform="matrix(0.9996 -0.0267 0.0267 0.9996 -4.3798 8.6969)" class="st8" cx="323.63" cy="168.43" rx="3.33" ry="3.39"/>
			</g>
		</g>
		<g>
			<g>
				
					<ellipse transform="matrix(0.9996 -0.0267 0.0267 0.9996 -5.8221 8.9151)" class="st8" cx="331.08" cy="222.58" rx="3.33" ry="3.39"/>
			</g>
		</g>
		<g>
			<g>
				
					<ellipse transform="matrix(0.9996 -0.0267 0.0267 0.9996 -6.741 7.7744)" class="st8" cx="287.89" cy="256.43" rx="3.33" ry="3.39"/>
			</g>
		</g>
		<g>
			<g>
				
					<ellipse transform="matrix(0.9996 -0.0267 0.0267 0.9996 -5.1404 6.5906)" class="st8" cx="244.34" cy="195.87" rx="3.33" ry="3.39"/>
			</g>
		</g>
		<polygon class="st7" points="180.39,111.41 96.51,155.4 152.66,160.67 		"/>
		<polygon class="st7" points="180.39,111.41 187.04,161.61 208.52,139.72 		"/>
		<polyline class="st7" points="390.86,158.22 329.33,104.03 390.86,158.22 320.82,136.51 329.33,104.03 287.46,97.51 287.89,36.12 
			287.46,97.51 257.54,112.98 295.09,150.09 287.46,97.51 320.82,136.51 323.63,168.43 295.09,150.09 239.78,150.12 208.52,139.72 
			219.38,112.02 239.78,150.12 287.46,190.95 295.09,150.09 327.75,198.11 323.63,168.43 363.77,190.21 331.08,222.58 
			327.75,198.11 287.46,190.95 287.89,256.43 287.46,190.95 244.34,195.87 287.89,256.43 186.97,195.92 244.34,195.87 
			228.24,173.34 239.78,150.12 187.04,161.61 186.97,195.92 228.24,173.34 187.04,161.61 152.66,160.67 186.97,195.92 		"/>
		<polygon class="st7" points="257.54,67.38 287.89,36.12 257.42,113.87 		"/>
		<polygon class="st7" points="220.37,80.04 257.54,67.38 219.38,112.02 		"/>
		<line class="st7" x1="180.36" y1="110.22" x2="218.42" y2="112.05"/>
		<path class="st7" d="M257.54,112.98l-17.76,37.14L257.54,112.98z"/>
		<path class="st7" d="M330.39,222.6l-42.51,33.83L330.39,222.6z"/>
		<polyline class="st7" points="368.69,92.69 331.56,62.82 287.89,36.12 329.33,104.03 368.69,92.69 384.6,123.28 390.86,158.22 
			363.77,190.21 363.77,190.21 469.22,154.08 384.6,123.28 439.81,124.36 469.22,154.08 390.86,158.22 		"/>
		<path class="st7" d="M329.33,104.03l55.28,19.25L329.33,104.03z"/>
		<path class="st7" d="M287.46,190.95l43.63,31.63L287.46,190.95z"/>
		<polyline class="st7" points="327.75,198.11 363.77,190.21 320.82,136.51 		"/>
	</g>
	<path class="st7" d="M331.56,62.82l-2.23,41.22L331.56,62.82z"/>
</g>
</svg>
